<?xml version="1.0" encoding="UTF-8"?><svg id="Capa_1" xmlns="http://www.w3.org/2000/svg" viewBox="0 0 224.1 196.18"><defs><style>.cls-1{fill:#1f5e58;}</style></defs><polygon class="cls-1" points="224.04 0 168.03 49.05 149.36 65.39 130.68 81.74 130.68 81.75 130.67 81.75 112.01 98.09 112.01 98.1 112 98.1 93.35 114.44 93.35 114.45 93.34 114.45 74.68 130.79 74.68 130.8 74.67 130.8 56.01 147.14 56.01 147.14 56 147.14 37.34 163.48 37.34 163.49 37.33 163.49 18.67 179.83 18.67 179.84 18.66 179.84 0 196.18 0 130.79 18.66 114.45 18.67 114.45 18.67 114.44 37.33 98.1 37.34 98.1 37.34 98.09 56 81.75 56.01 81.75 56.01 81.74 112.01 32.7 130.68 16.35 149.36 0 224.04 0"/><polygon class="cls-1" points="56.01 0 56.01 49.05 18.67 81.74 18.67 81.75 18.66 81.75 0 98.09 0 0 56.01 0"/><path class="cls-1" d="m205.38,179.84h0l-18.66-16.35h0l-18.66-16.35h0l-18.66-16.35h-.03.02l-18.67-16.35h-.02l-18.66,16.34h0l-18.66,16.34h0l-18.66,16.34h0l-18.66,16.34h0l-18.66,16.34h186.7l-18.66-16.35-.06.05Zm-112.03,0h0l18.66-16.35h0l18.66-16.35h.02l18.67,16.34h0l18.66,16.34h-74.69l.02.02Z"/></svg>